<?xml version="1.0" standalone="no"?>
<!DOCTYPE svg PUBLIC "-//W3C//DTD SVG 20010904//EN"
 "http://www.w3.org/TR/2001/REC-SVG-20010904/DTD/svg10.dtd">
<svg version="1.0" xmlns="http://www.w3.org/2000/svg"
 width="1024.000000pt" height="1024.000000pt" viewBox="0 0 1024.000000 1024.000000"
 preserveAspectRatio="xMidYMid meet">
<metadata>
Created by potrace 1.11, written by Peter Selinger 2001-2013
</metadata>
<g transform="translate(0.000000,1024.000000) scale(0.100000,-0.100000)"
fill="#000000" stroke="none">
<path d="M3558 10064 c-4 -3 -21 -8 -40 -10 -18 -3 -44 -9 -58 -14 -14 -5 -54
-16 -90 -25 -36 -8 -72 -17 -80 -19 -8 -3 -33 -9 -55 -14 -45 -10 -362 -95
-440 -118 -77 -22 -268 -75 -287 -80 -10 -2 -26 -6 -35 -8 -10 -2 -74 -20
-143 -40 -69 -19 -160 -44 -202 -55 -43 -12 -113 -30 -155 -42 -86 -23 -331
-84 -492 -123 -56 -13 -106 -27 -109 -30 -3 -3 9 -59 27 -123 17 -65 34 -126
36 -137 2 -10 11 -42 19 -70 8 -28 24 -87 36 -131 12 -44 53 -197 91 -340 58
-214 202 -769 214 -825 13 -56 137 -571 143 -595 5 -18 14 -29 23 -27 8 2 21
5 29 7 8 2 69 20 135 40 66 19 128 37 137 40 10 2 69 20 131 39 221 69 523
149 612 162 22 3 70 17 107 29 99 34 297 89 513 141 235 56 208 51 285 59 63
7 164 26 225 43 47 13 46 47 -7 232 -5 19 -16 60 -23 92 -7 31 -22 85 -33 120
-12 34 -31 99 -42 143 -27 102 -24 87 -44 180 -10 44 -22 94 -26 110 -5 17
-11 41 -14 55 -12 68 -53 211 -102 354 -91 265 -184 608 -235 861 -6 33 -13
67 -14 75 -2 8 -4 23 -4 33 -1 16 -21 23 -33 11z"/>
<path d="M6554 9267 c-16 -4 -36 -9 -44 -11 -78 -19 -546 -147 -755 -206 -107
-31 -274 -77 -305 -85 -8 -2 -73 -20 -145 -40 -157 -43 -353 -96 -379 -101
-10 -2 -33 -8 -50 -13 -17 -6 -42 -12 -56 -15 -19 -4 -213 -51 -285 -71 -5 -1
-30 -6 -54 -10 -47 -9 -46 -8 -27 -90 2 -11 10 -42 16 -70 6 -27 13 -57 15
-65 2 -8 15 -62 28 -120 37 -153 77 -322 81 -345 3 -11 14 -60 25 -110 22 -94
109 -485 115 -520 23 -124 76 -419 80 -450 8 -53 17 -115 22 -140 2 -11 7 -45
10 -75 3 -30 7 -65 9 -78 2 -13 7 -53 11 -90 4 -37 8 -76 9 -87 1 -11 3 -29 4
-41 1 -20 3 -20 99 13 190 67 568 178 670 198 9 1 35 8 57 13 22 6 51 13 65
16 14 2 57 11 95 19 39 9 85 18 103 20 17 3 83 26 145 51 101 41 281 101 332
111 11 2 20 4 20 5 0 1 10 3 23 6 13 2 85 19 160 38 85 21 175 36 237 40 119
7 146 11 203 32 56 21 63 48 37 152 -11 49 -14 59 -34 127 -11 39 -27 106 -36
150 -75 368 -97 469 -100 474 -2 4 -6 26 -10 51 -4 25 -8 47 -10 51 -2 3 -7
21 -10 40 -3 19 -22 97 -41 174 -36 140 -41 163 -49 200 -5 22 -61 254 -72
295 -3 14 -8 32 -9 41 -2 8 -21 87 -43 175 -21 87 -50 203 -62 256 -26 106
-25 106 -95 85z"/>
<path d="M9620 8526 c-240 -66 -240 -66 -390 -124 -93 -36 -309 -103 -376
-117 -13 -3 -36 -8 -51 -11 -91 -18 -235 -59 -348 -99 -238 -83 -614 -185
-872 -236 -62 -12 -111 -24 -109 -28 35 -63 138 -399 160 -521 2 -14 11 -54
19 -90 8 -36 18 -83 21 -105 4 -22 8 -47 11 -55 2 -8 6 -32 9 -52 3 -21 12
-75 20 -120 8 -46 17 -103 21 -128 8 -62 18 -93 55 -185 74 -183 190 -609 204
-750 6 -59 11 -95 21 -145 3 -14 8 -38 11 -54 3 -16 12 -42 20 -58 14 -27 18
-29 57 -24 71 10 297 77 415 122 145 57 399 132 542 160 14 3 43 10 65 16 22
5 47 12 55 14 8 2 83 27 165 55 279 95 480 149 818 223 l77 17 0 113 c0 98 -4
124 -29 202 -16 49 -43 136 -60 194 -51 178 -113 438 -137 580 -3 19 -26 97
-50 174 -54 170 -98 328 -110 395 -3 19 -10 45 -15 59 -5 14 -7 27 -5 29 3 3
1 15 -4 28 -8 20 -19 93 -36 230 -13 108 -23 172 -35 220 -22 90 -40 99 -139
71z"/>
<path d="M2380 7199 c-58 -16 -118 -31 -134 -34 -16 -3 -32 -8 -36 -10 -3 -2
-17 -6 -31 -9 -13 -3 -168 -44 -344 -91 -176 -48 -327 -88 -335 -90 -8 -2 -60
-16 -115 -31 -55 -14 -203 -52 -330 -84 l-230 -57 2 -42 c4 -60 55 -311 114
-550 27 -113 51 -214 53 -225 2 -12 9 -39 14 -61 21 -79 73 -347 78 -403 4
-48 18 -124 39 -226 18 -81 46 -126 99 -153 37 -19 80 -19 148 0 53 16 73 20
157 34 25 4 48 8 51 8 3 1 25 5 50 9 73 13 83 15 135 26 28 6 59 12 70 14 36
8 119 28 210 53 50 14 97 27 105 29 39 9 107 26 120 29 218 52 364 87 440 108
83 22 149 35 186 37 24 0 51 39 48 67 -9 85 -17 150 -19 163 -11 52 -27 113
-43 165 -11 33 -23 83 -26 110 -4 28 -9 57 -11 65 -2 8 -7 30 -10 49 -12 72
-79 332 -122 476 -25 83 -46 157 -48 165 -2 8 -15 51 -28 95 -24 75 -88 307
-101 368 -8 34 -20 34 -156 -4z"/>
<path d="M5440 6420 c-58 -15 -166 -44 -240 -63 -74 -20 -304 -81 -510 -137
-206 -55 -384 -102 -395 -105 -236 -55 -435 -109 -435 -118 0 -6 31 -132 69
-281 39 -149 109 -424 156 -611 48 -187 98 -383 111 -435 14 -52 27 -102 29
-110 4 -18 65 -257 71 -282 5 -15 9 -15 53 -2 27 8 98 27 157 43 115 31 531
147 649 181 39 11 102 29 140 40 39 10 207 58 375 105 168 47 313 88 322 91
18 5 18 8 -7 104 -9 36 -19 72 -20 80 -2 8 -11 42 -20 75 -9 33 -32 121 -52
195 -38 144 -65 244 -108 405 -49 180 -84 316 -152 588 -38 147 -72 267 -78
266 -5 -1 -57 -13 -115 -29z"/>
<path d="M8500 5694 c-74 -14 -205 -53 -265 -78 -22 -10 -137 -40 -255 -67
-120 -27 -244 -62 -280 -79 -184 -83 -442 -166 -680 -220 -52 -11 -102 -23
-111 -26 -15 -4 -15 -11 -2 -77 8 -40 16 -83 19 -97 3 -14 9 -39 15 -56 5 -17
11 -40 14 -50 2 -10 18 -66 34 -123 39 -133 68 -277 75 -366 2 -38 21 -142 42
-230 20 -88 40 -176 44 -195 5 -19 20 -82 34 -140 14 -58 34 -154 45 -215 10
-60 24 -122 30 -137 17 -44 46 -40 321 42 58 17 121 33 140 36 47 8 256 55
432 98 114 29 337 79 440 101 9 2 26 9 37 15 12 6 21 8 21 6 0 -3 10 -2 23 3
12 5 45 12 72 15 96 13 288 55 299 66 29 29 -19 261 -85 417 -10 22 -20 57
-23 76 -3 19 -21 99 -40 178 -18 79 -50 214 -70 299 -20 85 -52 220 -71 300
-19 80 -36 165 -39 190 -13 112 -19 156 -31 210 -3 14 -7 36 -10 50 -6 35 -50
71 -83 68 -15 -1 -57 -7 -92 -14z"/>
<path d="M1505 4825 c-22 -7 -76 -20 -120 -30 -44 -9 -152 -39 -240 -67 -88
-27 -180 -56 -205 -64 -96 -30 -400 -112 -495 -135 -55 -12 -101 -24 -103 -25
-1 -1 4 -21 12 -45 26 -79 74 -250 126 -454 70 -270 124 -458 170 -590 59
-167 63 -175 80 -171 412 115 687 197 781 231 102 38 190 64 276 81 12 2 39
10 60 17 31 10 38 17 40 42 2 17 -20 122 -47 235 -56 231 -130 552 -135 590
-12 83 -72 339 -90 383 -8 20 -49 21 -110 2z"/>
<path d="M4550 4075 c-157 -45 -316 -92 -455 -136 -88 -28 -187 -59 -220 -69
-141 -44 -464 -118 -487 -112 -12 3 -11 -2 43 -188 28 -96 51 -179 53 -185 14
-54 60 -200 76 -240 42 -109 68 -169 93 -220 18 -36 32 -80 34 -110 6 -99 66
-254 109 -282 25 -16 53 -13 109 12 31 14 85 28 275 70 63 15 122 28 130 30
21 5 171 36 195 41 312 58 447 104 470 157 17 41 12 71 -34 218 -129 407 -163
518 -196 639 -20 74 -43 155 -50 180 -7 25 -21 82 -31 128 -20 92 -21 93 -114
67z"/>
<path d="M7585 3273 c-123 -47 -415 -134 -525 -157 -28 -6 -509 -116 -525
-120 -5 -1 -31 -6 -58 -11 -26 -4 -50 -11 -53 -16 -3 -5 1 -33 10 -62 8 -28
22 -77 30 -107 21 -77 126 -463 130 -475 1 -5 6 -28 11 -50 4 -22 11 -47 16
-56 4 -9 11 -29 13 -45 3 -16 21 -85 39 -154 19 -69 45 -165 58 -215 21 -82
34 -109 49 -100 3 2 23 6 45 9 22 4 69 14 105 22 36 9 73 17 83 19 34 7 193
57 352 110 289 95 461 145 560 162 17 3 37 7 45 8 8 2 23 4 34 4 16 1 17 6 12
34 -12 52 -13 59 -31 127 -9 36 -18 72 -20 80 -2 8 -13 53 -25 100 -12 47 -23
93 -25 103 -2 9 -6 21 -9 25 -3 5 -7 20 -10 35 -2 14 -14 61 -26 104 -12 43
-24 87 -26 98 -9 47 -156 550 -162 556 -4 4 -47 -9 -97 -28z"/>
<path d="M715 2694 c-112 -20 -129 -24 -155 -34 -44 -15 -123 -29 -205 -35
-114 -9 -207 -24 -303 -51 -38 -11 -52 -19 -48 -29 7 -19 24 -85 30 -115 2
-14 11 -56 20 -95 9 -38 18 -81 20 -95 3 -14 16 -86 30 -160 13 -74 27 -151
30 -170 3 -19 8 -46 10 -60 2 -14 7 -45 10 -70 3 -25 9 -65 12 -90 3 -25 7
-46 9 -48 1 -1 27 7 56 19 176 70 436 143 729 205 38 8 38 -10 -5 179 -8 33
-25 107 -39 165 -16 68 -27 147 -31 225 -7 172 -33 255 -83 267 -9 3 -48 -1
-87 -8z"/>
<path d="M3725 2039 c-113 -37 -515 -156 -553 -164 -54 -11 -118 -29 -125 -35
-5 -4 1 -38 13 -76 42 -134 83 -316 125 -555 9 -53 20 -101 24 -108 8 -12 122
9 339 63 60 15 142 27 215 30 172 9 265 34 268 74 4 56 2 75 -14 157 -11 50
-35 133 -54 185 -19 52 -36 104 -39 115 -5 26 -64 346 -64 351 0 6 -9 4 -135
-37z"/>
<path d="M6870 1289 c-12 -7 -194 -65 -390 -124 -75 -22 -201 -57 -225 -61
-12 -2 -41 -10 -64 -19 -45 -15 -43 -15 -68 -15 -44 -1 -47 -14 -20 -96 61
-189 92 -357 104 -559 3 -55 7 -102 9 -104 4 -4 142 20 197 34 9 3 25 7 36 9
10 2 35 9 55 14 20 6 36 8 36 5 0 -3 7 0 15 7 8 7 15 10 15 6 0 -3 12 -1 28 5
15 6 65 12 112 14 201 9 301 30 321 67 16 30 5 117 -32 257 -16 64 -32 149
-34 190 -6 111 -17 182 -45 290 -21 81 -28 93 -50 80z"/>
</g>
</svg>
