<svg version="1.0" xmlns="http://www.w3.org/2000/svg" width="1365.333" height="1365.333" viewBox="0 0 1024 1024"><path d="M355.8 17.6c-.4.3-2.1.8-4 1-1.8.3-4.4.9-5.8 1.4-1.4.5-5.4 1.6-9 2.5-3.6.8-7.2 1.7-8 1.9-.8.3-3.3.9-5.5 1.4-4.5 1-36.2 9.5-44 11.8-7.7 2.2-26.8 7.5-28.7 8-1 .2-2.6.6-3.5.8-1 .2-7.4 2-14.3 4-6.9 1.9-16 4.4-20.2 5.5-4.3 1.2-11.3 3-15.5 4.2-8.6 2.3-33.1 8.4-49.2 12.3-5.6 1.3-10.6 2.7-10.9 3-.3.3.9 5.9 2.7 12.3 1.7 6.5 3.4 12.6 3.6 13.7.2 1 1.1 4.2 1.9 7 .8 2.8 2.4 8.7 3.6 13.1 1.2 4.4 5.3 19.7 9.1 34 5.8 21.4 20.2 76.9 21.4 82.5 1.3 5.6 13.7 57.1 14.3 59.5.5 1.8 1.4 2.9 2.3 2.7.8-.2 2.1-.5 2.9-.7.8-.2 6.9-2 13.5-4 6.6-1.9 12.8-3.7 13.7-4 1-.2 6.9-2 13.1-3.9 22.1-6.9 52.3-14.9 61.2-16.2 2.2-.3 7-1.7 10.7-2.9 9.9-3.4 29.7-8.9 51.3-14.1 23.5-5.6 20.8-5.1 28.5-5.9 6.3-.7 16.4-2.6 22.5-4.3 4.7-1.3 4.6-4.7-.7-23.2-.5-1.9-1.6-6-2.3-9.2-.7-3.1-2.2-8.5-3.3-12-1.2-3.4-3.1-9.9-4.2-14.3-2.7-10.2-2.4-8.7-4.4-18-1-4.4-2.2-9.4-2.6-11-.5-1.7-1.1-4.1-1.4-5.5-1.2-6.8-5.3-21.1-10.2-35.4-9.1-26.5-18.4-60.8-23.5-86.1-.6-3.3-1.3-6.7-1.4-7.5-.2-.8-.4-2.3-.4-3.3-.1-1.6-2.1-2.3-3.3-1.1zm299.6 79.7l-4.4 1.1c-7.8 1.9-54.6 14.7-75.5 20.6-10.7 3.1-27.4 7.7-30.5 8.5-.8.2-7.3 2-14.5 4-15.7 4.3-35.3 9.6-37.9 10.1-1 .2-3.3.8-5 1.3-1.7.6-4.2 1.2-5.6 1.5-1.9.4-21.3 5.1-28.5 7.1-.5.1-3 .6-5.4 1-4.7.9-4.6.8-2.7 9 .2 1.1 1 4.2 1.6 7 .6 2.7 1.3 5.7 1.5 6.5.2.8 1.5 6.2 2.8 12 3.7 15.3 7.7 32.2 8.1 34.5.3 1.1 1.4 6 2.5 11 2.2 9.4 10.9 48.5 11.5 52 2.3 12.4 7.6 41.9 8 45 .8 5.3 1.7 11.5 2.2 14 .2 1.1.7 4.5 1 7.5.3 3 .7 6.5.9 7.8.2 1.3.7 5.3 1.1 9 .4 3.7.8 7.6.9 8.7.1 1.1.3 2.9.4 4.1.1 2 .3 2 9.9-1.3 19-6.7 56.8-17.8 67-19.8.9-.1 3.5-.8 5.7-1.3 2.2-.6 5.1-1.3 6.5-1.6 1.4-.2 5.7-1.1 9.5-1.9 3.9-.9 8.5-1.8 10.3-2 1.7-.3 8.3-2.6 14.5-5.1 10.1-4.1 28.1-10.1 33.2-11.1 1.1-.2 2-.4 2-.5 0-.1 1-.3 2.3-.6 1.3-.2 8.5-1.9 16-3.8 8.5-2.1 17.5-3.6 23.7-4 11.9-.7 14.6-1.1 20.3-3.2 5.6-2.1 6.3-4.8 3.7-15.2-1.1-4.9-1.4-5.9-3.4-12.7-1.1-3.9-2.7-10.6-3.6-15-7.5-36.8-9.7-46.9-10-47.4-.2-.4-.6-2.6-1-5.1-.4-2.5-.8-4.7-1-5.1-.2-.3-.7-2.1-1-4-.3-1.9-2.2-9.7-4.1-17.4-3.6-14-4.1-16.3-4.9-20-.5-2.2-6.1-25.4-7.2-29.5-.3-1.4-.8-3.2-.9-4.1-.2-.8-2.1-8.7-4.3-17.5-2.1-8.7-5-20.3-6.2-25.6-2.6-10.6-2.5-10.6-9.5-8.5zM962 171.4c-24 6.6-24 6.6-39 12.4-9.3 3.6-30.9 10.3-37.6 11.7-1.3.3-3.6.8-5.1 1.1-9.1 1.8-23.5 5.9-34.8 9.9-23.8 8.3-61.4 18.5-87.2 23.6-6.2 1.2-11.1 2.4-10.9 2.8 3.5 6.3 13.8 39.9 16 52.1.2 1.4 1.1 5.4 1.9 9 .8 3.6 1.8 8.3 2.1 10.5.4 2.2.8 4.7 1.1 5.5.2.8.6 3.2.9 5.2.3 2.1 1.2 7.5 2 12 .8 4.6 1.7 10.3 2.1 12.8.8 6.2 1.8 9.3 5.5 18.5 7.4 18.3 19 60.9 20.4 75 .6 5.9 1.1 9.5 2.1 14.5.3 1.4.8 3.8 1.1 5.4.3 1.6 1.2 4.2 2 5.8 1.4 2.7 1.8 2.9 5.7 2.4 7.1-1 29.7-7.7 41.5-12.2 14.5-5.7 39.9-13.2 54.2-16 1.4-.3 4.3-1 6.5-1.6 2.2-.5 4.7-1.2 5.5-1.4.8-.2 8.3-2.7 16.5-5.5 27.9-9.5 48-14.9 81.8-22.3l7.7-1.7v-11.3c0-9.8-.4-12.4-2.9-20.2-1.6-4.9-4.3-13.6-6-19.4-5.1-17.8-11.3-43.8-13.7-58-.3-1.9-2.6-9.7-5-17.4-5.4-17-9.8-32.8-11-39.5-.3-1.9-1-4.5-1.5-5.9-.5-1.4-.7-2.7-.5-2.9.3-.3.1-1.5-.4-2.8-.8-2-1.9-9.3-3.6-23-1.3-10.8-2.3-17.2-3.5-22-2.2-9-4-9.9-13.9-7.1zM238 304.1c-5.8 1.6-11.8 3.1-13.4 3.4-1.6.3-3.2.8-3.6 1-.3.2-1.7.6-3.1.9-1.3.3-16.8 4.4-34.4 9.1-17.6 4.8-32.7 8.8-33.5 9-.8.2-6 1.6-11.5 3.1-5.5 1.4-20.3 5.2-33 8.4l-23 5.7.2 4.2c.4 6 5.5 31.1 11.4 55 2.7 11.3 5.1 21.4 5.3 22.5.2 1.2.9 3.9 1.4 6.1 2.1 7.9 7.3 34.7 7.8 40.3.4 4.8 1.8 12.4 3.9 22.6 1.8 8.1 4.6 12.6 9.9 15.3 3.7 1.9 8 1.9 14.8 0 5.3-1.6 7.3-2 15.7-3.4 2.5-.4 4.8-.8 5.1-.8.3-.1 2.5-.5 5-.9 7.3-1.3 8.3-1.5 13.5-2.6 2.8-.6 5.9-1.2 7-1.4 3.6-.8 11.9-2.8 21-5.3 5-1.4 9.7-2.7 10.5-2.9 3.9-.9 10.7-2.6 12-2.9 21.8-5.2 36.4-8.7 44-10.8 8.3-2.2 14.9-3.5 18.6-3.7 2.4 0 5.1-3.9 4.8-6.7-.9-8.5-1.7-15-1.9-16.3-1.1-5.2-2.7-11.3-4.3-16.5-1.1-3.3-2.3-8.3-2.6-11-.4-2.8-.9-5.7-1.1-6.5-.2-.8-.7-3-1-4.9-1.2-7.2-7.9-33.2-12.2-47.6-2.5-8.3-4.6-15.7-4.8-16.5-.2-.8-1.5-5.1-2.8-9.5-2.4-7.5-8.8-30.7-10.1-36.8-.8-3.4-2-3.4-15.6.4zM544 382c-5.8 1.5-16.6 4.4-24 6.3-7.4 2-30.4 8.1-51 13.7-20.6 5.5-38.4 10.2-39.5 10.5-23.6 5.5-43.5 10.9-43.5 11.8 0 .6 3.1 13.2 6.9 28.1 3.9 14.9 10.9 42.4 15.6 61.1 4.8 18.7 9.8 38.3 11.1 43.5 1.4 5.2 2.7 10.2 2.9 11 .4 1.8 6.5 25.7 7.1 28.2.5 1.5.9 1.5 5.3.2 2.7-.8 9.8-2.7 15.7-4.3 11.5-3.1 53.1-14.7 64.9-18.1 3.9-1.1 10.2-2.9 14-4 3.9-1 20.7-5.8 37.5-10.5s31.3-8.8 32.2-9.1c1.8-.5 1.8-.8-.7-10.4-.9-3.6-1.9-7.2-2-8-.2-.8-1.1-4.2-2-7.5-.9-3.3-3.2-12.1-5.2-19.5-3.8-14.4-6.5-24.4-10.8-40.5-4.9-18-8.4-31.6-15.2-58.8-3.8-14.7-7.2-26.7-7.8-26.6-.5.1-5.7 1.3-11.5 2.9zm306 72.6c-7.4 1.4-20.5 5.3-26.5 7.8-2.2 1-13.7 4-25.5 6.7-12 2.7-24.4 6.2-28 7.9-18.4 8.3-44.2 16.6-68 22-5.2 1.1-10.2 2.3-11.1 2.6-1.5.4-1.5 1.1-.2 7.7.8 4 1.6 8.3 1.9 9.7.3 1.4.9 3.9 1.5 5.6.5 1.7 1.1 4 1.4 5 .2 1 1.8 6.6 3.4 12.3 3.9 13.3 6.8 27.7 7.5 36.6.2 3.8 2.1 14.2 4.2 23 2 8.8 4 17.6 4.4 19.5.5 1.9 2 8.2 3.4 14 1.4 5.8 3.4 15.4 4.5 21.5 1 6 2.4 12.2 3 13.7 1.7 4.4 4.6 4 32.1-4.2 5.8-1.7 12.1-3.3 14-3.6 4.7-.8 25.6-5.5 43.2-9.8 11.4-2.9 33.7-7.9 44-10.1.9-.2 2.6-.9 3.7-1.5 1.2-.6 2.1-.8 2.1-.6 0 .3 1 .2 2.3-.3 1.2-.5 4.5-1.2 7.2-1.5 9.6-1.3 28.8-5.5 29.9-6.6 2.9-2.9-1.9-26.1-8.5-41.7-1-2.2-2-5.7-2.3-7.6-.3-1.9-2.1-9.9-4-17.8-1.8-7.9-5-21.4-7-29.9s-5.2-22-7.1-30c-1.9-8-3.6-16.5-3.9-19-1.3-11.2-1.9-15.6-3.1-21-.3-1.4-.7-3.6-1-5-.6-3.5-5-7.1-8.3-6.8-1.5.1-5.7.7-9.2 1.4zm-699.5 86.9c-2.2.7-7.6 2-12 3-4.4.9-15.2 3.9-24 6.7-8.8 2.7-18 5.6-20.5 6.4-9.6 3-40 11.2-49.5 13.5-5.5 1.2-10.1 2.4-10.3 2.5-.1.1.4 2.1 1.2 4.5 2.6 7.9 7.4 25 12.6 45.4 7 27 12.4 45.8 17 59 5.9 16.7 6.3 17.5 8 17.1 41.2-11.5 68.7-19.7 78.1-23.1 10.2-3.8 19-6.4 27.6-8.1 1.2-.2 3.9-1 6-1.7 3.1-1 3.8-1.7 4-4.2.2-1.7-2-12.2-4.7-23.5-5.6-23.1-13-55.2-13.5-59-1.2-8.3-7.2-33.9-9-38.3-.8-2-4.9-2.1-11-.2zm304.5 75c-15.7 4.5-31.6 9.2-45.5 13.6-8.8 2.8-18.7 5.9-22 6.9-14.1 4.4-46.4 11.8-48.7 11.2-1.2-.3-1.1.2 4.3 18.8 2.8 9.6 5.1 17.9 5.3 18.5 1.4 5.4 6 20 7.6 24 4.2 10.9 6.8 16.9 9.3 22 1.8 3.6 3.2 8 3.4 11 .6 9.9 6.6 25.4 10.9 28.2 2.5 1.6 5.3 1.3 10.9-1.2 3.1-1.4 8.5-2.8 27.5-7 6.3-1.5 12.2-2.8 13-3 2.1-.5 17.1-3.6 19.5-4.1 31.2-5.8 44.7-10.4 47-15.7 1.7-4.1 1.2-7.1-3.4-21.8-12.9-40.7-16.3-51.8-19.6-63.9-2-7.4-4.3-15.5-5-18-.7-2.5-2.1-8.2-3.1-12.8-2-9.2-2.1-9.3-11.4-6.7zm303.5 80.2c-12.3 4.7-41.5 13.4-52.5 15.7-2.8.6-50.9 11.6-52.5 12-.5.1-3.1.6-5.8 1.1-2.6.4-5 1.1-5.3 1.6-.3.5.1 3.3 1 6.2.8 2.8 2.2 7.7 3 10.7 2.1 7.7 12.6 46.3 13 47.5.1.5.6 2.8 1.1 5 .4 2.2 1.1 4.7 1.6 5.6.4.9 1.1 2.9 1.3 4.5.3 1.6 2.1 8.5 3.9 15.4 1.9 6.9 4.5 16.5 5.8 21.5 2.1 8.2 3.4 10.9 4.9 10 .3-.2 2.3-.6 4.5-.9 2.2-.4 6.9-1.4 10.5-2.2 3.6-.9 7.3-1.7 8.3-1.9 3.4-.7 19.3-5.7 35.2-11 28.9-9.5 46.1-14.5 56-16.2 1.7-.3 3.7-.7 4.5-.8.8-.2 2.3-.4 3.4-.4 1.6-.1 1.7-.6 1.2-3.4-1.2-5.2-1.3-5.9-3.1-12.7l-2-8c-.2-.8-1.3-5.3-2.5-10s-2.3-9.3-2.5-10.3c-.2-.9-.6-2.1-.9-2.5-.3-.5-.7-2-1-3.5-.2-1.4-1.4-6.1-2.6-10.4-1.2-4.3-2.4-8.7-2.6-9.8-.9-4.7-15.6-55-16.2-55.6-.4-.4-4.7.9-9.7 2.8zm-687 57.9c-11.2 2-12.9 2.4-15.5 3.4-4.4 1.5-12.3 2.9-20.5 3.5-11.4.9-20.7 2.4-30.3 5.1-3.8 1.1-5.2 1.9-4.8 2.9.7 1.9 2.4 8.5 3 11.5.2 1.4 1.1 5.6 2 9.5.9 3.8 1.8 8.1 2 9.5.3 1.4 1.6 8.6 3 16 1.3 7.4 2.7 15.1 3 17 .3 1.9.8 4.6 1 6 .2 1.4.7 4.5 1 7 .3 2.5.9 6.5 1.2 9 .3 2.5.7 4.6.9 4.8.1.1 2.7-.7 5.6-1.9 17.6-7 43.6-14.3 72.9-20.5 3.8-.8 3.8 1-.5-17.9-.8-3.3-2.5-10.7-3.9-16.5-1.6-6.8-2.7-14.7-3.1-22.5-.7-17.2-3.3-25.5-8.3-26.7-.9-.3-4.8.1-8.7.8zm301 65.5c-11.3 3.7-51.5 15.6-55.3 16.4-5.4 1.1-11.8 2.9-12.5 3.5-.5.4.1 3.8 1.3 7.6 4.2 13.4 8.3 31.6 12.5 55.5.9 5.3 2 10.1 2.4 10.8.8 1.2 12.2-.9 33.9-6.3 6-1.5 14.2-2.7 21.5-3 17.2-.9 26.5-3.4 26.8-7.4.4-5.6.2-7.5-1.4-15.7-1.1-5-3.5-13.3-5.4-18.5-1.9-5.2-3.6-10.4-3.9-11.5-.5-2.6-6.4-34.6-6.4-35.1 0-.6-.9-.4-13.5 3.7zm314.5 75c-1.2.7-19.4 6.5-39 12.4-7.5 2.2-20.1 5.7-22.5 6.1-1.2.2-4.1 1-6.4 1.9-4.5 1.5-4.3 1.5-6.8 1.5-4.4.1-4.7 1.4-2 9.6 6.1 18.9 9.2 35.7 10.4 55.9.3 5.5.7 10.2.9 10.4.4.4 14.2-2 19.7-3.4.9-.3 2.5-.7 3.6-.9 1-.2 3.5-.9 5.5-1.4 2-.6 3.6-.8 3.6-.5 0 .3.7 0 1.5-.7s1.5-1 1.5-.6c0 .3 1.2.1 2.8-.5 1.5-.6 6.5-1.2 11.2-1.4 20.1-.9 30.1-3 32.1-6.7 1.6-3 .5-11.7-3.2-25.7-1.6-6.4-3.2-14.9-3.4-19-.6-11.1-1.7-18.2-4.5-29-2.1-8.1-2.8-9.3-5-8z"/></svg>